<svg xmlns="http://www.w3.org/2000/svg" xmlns:xlink="http://www.w3.org/1999/xlink" width="1457" zoomAndPan="magnify" viewBox="0 0 1092.75 706.499979" height="942" preserveAspectRatio="xMidYMid meet" version="1.0"><metadata/><defs><clipPath id="d5e47a12b4"><path d="M 0.261719 0 L 1092 0 L 1092 706 L 0.261719 706 Z M 0.261719 0 " clip-rule="nonzero"/></clipPath><clipPath id="044f53a465"><path d="M 227.996094 230.566406 L 469.886719 230.566406 L 469.886719 472.457031 L 227.996094 472.457031 Z M 227.996094 230.566406 " clip-rule="nonzero"/></clipPath><clipPath id="8891acc497"><path d="M 227.996094 230.566406 L 703.207031 230.566406 L 703.207031 705.78125 L 227.996094 705.78125 Z M 227.996094 230.566406 " clip-rule="nonzero"/></clipPath><clipPath id="503d70e428"><path d="M 465.679688 230.566406 C 334.410156 230.566406 227.996094 336.984375 227.996094 468.253906 C 227.996094 599.523438 334.410156 705.9375 465.679688 705.9375 C 596.949219 705.9375 703.367188 599.523438 703.367188 468.253906 C 703.367188 336.984375 596.949219 230.566406 465.679688 230.566406 Z M 465.679688 230.566406 " clip-rule="nonzero"/></clipPath><clipPath id="d82ba01b9d"><path d="M 0.261719 230.566406 L 242.152344 230.566406 L 242.152344 472.457031 L 0.261719 472.457031 Z M 0.261719 230.566406 " clip-rule="nonzero"/></clipPath><clipPath id="8c0f14a815"><path d="M 0.261719 0 L 242.152344 0 L 242.152344 241.890625 L 0.261719 241.890625 Z M 0.261719 0 " clip-rule="nonzero"/></clipPath><clipPath id="e75c0ae504"><path d="M 227.996094 0 L 469.886719 0 L 469.886719 241.890625 L 227.996094 241.890625 Z M 227.996094 0 " clip-rule="nonzero"/></clipPath><clipPath id="108b9a5c77"><path d="M 690.1875 230.960938 L 1091.96875 230.960938 L 1091.96875 631.316406 L 690.1875 631.316406 Z M 690.1875 230.960938 " clip-rule="nonzero"/></clipPath><clipPath id="ec1003bbde"><path d="M 0.253906 0.960938 L 401.96875 0.960938 L 401.96875 401.316406 L 0.253906 401.316406 Z M 0.253906 0.960938 " clip-rule="nonzero"/></clipPath><clipPath id="4461843b84"><rect x="0" width="402" y="0" height="402"/></clipPath><clipPath id="82294e14bf"><path d="M 705 242.03125 L 1049 242.03125 L 1049 586 L 705 586 Z M 705 242.03125 " clip-rule="nonzero"/></clipPath><clipPath id="5ebbea1507"><path d="M 692.628906 265.320312 L 1037 265.320312 L 1037 610 L 692.628906 610 Z M 692.628906 265.320312 " clip-rule="nonzero"/></clipPath><clipPath id="404323e4ad"><path d="M 718.144531 238.765625 L 1063 238.765625 L 1063 583 L 718.144531 583 Z M 718.144531 238.765625 " clip-rule="nonzero"/></clipPath><clipPath id="368655538b"><rect x="0" width="1092" y="0" height="706"/></clipPath></defs><g clip-path="url(#d5e47a12b4)"><g transform="matrix(1, 0, 0, 1, 0.000000000000000056, 0)"><g clip-path="url(#368655538b)"><g clip-path="url(#044f53a465)"><path stroke-linecap="butt" transform="matrix(0.841084, 0, 0, 0.841084, 227.996113, 230.567261)" fill="none" stroke-linejoin="miter" d="M -0.0000231209 -0.00101676 L 287.593875 -0.00101676 L 287.593875 287.592881 L -0.0000231209 287.592881 Z M -0.0000231209 -0.00101676 " stroke="#eae8e0" stroke-width="32.078724" stroke-opacity="1" stroke-miterlimit="4"/></g><g clip-path="url(#8891acc497)"><g clip-path="url(#503d70e428)"><path stroke-linecap="butt" transform="matrix(0.841084, 0, 0, 0.841084, 227.996113, 230.567261)" fill="none" stroke-linejoin="miter" d="M 282.591959 -0.00101676 C 126.520114 -0.00101676 -0.0000231209 126.523765 -0.0000231209 282.59561 C -0.0000231209 438.667455 126.520114 565.187592 282.591959 565.187592 C 438.663804 565.187592 565.188585 438.667455 565.188585 282.59561 C 565.188585 126.523765 438.663804 -0.00101676 282.591959 -0.00101676 Z M 282.591959 -0.00101676 " stroke="#eae8e0" stroke-width="32.078724" stroke-opacity="1" stroke-miterlimit="4"/></g></g><path stroke-linecap="butt" transform="matrix(0.841084, 0, 0, 0.841084, 465.682762, 230.538)" fill="none" stroke-linejoin="miter" d="M 0.00098887 8.50034 L 452.639528 8.50034 " stroke="#eae8e0" stroke-width="17" stroke-opacity="1" stroke-miterlimit="4"/><g clip-path="url(#d82ba01b9d)"><path stroke-linecap="butt" transform="matrix(0.841084, 0, 0, 0.841084, 0.261508, 230.567261)" fill="none" stroke-linejoin="miter" d="M 0.000250031 -0.00101676 L 287.594148 -0.00101676 L 287.594148 287.592881 L 0.000250031 287.592881 Z M 0.000250031 -0.00101676 " stroke="#eae8e0" stroke-width="32.078724" stroke-opacity="1" stroke-miterlimit="4"/></g><g clip-path="url(#8c0f14a815)"><path stroke-linecap="butt" transform="matrix(0.841084, 0, 0, 0.841084, 0.261508, -0.000000000000180825)" fill="none" stroke-linejoin="miter" d="M 0.000250031 0.00000000000021499 L 287.594148 0.00000000000021499 L 287.594148 287.593898 L 0.000250031 287.593898 Z M 0.000250031 0.00000000000021499 " stroke="#eae8e0" stroke-width="32.078724" stroke-opacity="1" stroke-miterlimit="4"/></g><g clip-path="url(#e75c0ae504)"><path stroke-linecap="butt" transform="matrix(0.841084, 0, 0, 0.841084, 227.996113, -0.000000000000180825)" fill="none" stroke-linejoin="miter" d="M -0.0000231209 0.00000000000021499 L 287.593875 0.00000000000021499 L 287.593875 287.593898 L -0.0000231209 287.593898 Z M -0.0000231209 0.00000000000021499 " stroke="#eae8e0" stroke-width="32.078724" stroke-opacity="1" stroke-miterlimit="4"/></g><g clip-path="url(#108b9a5c77)"><g transform="matrix(1, 0, 0, 1, 690, 230)"><g clip-path="url(#4461843b84)"><g clip-path="url(#ec1003bbde)"><path fill="#eae8e0" d="M 0.359375 10.070312 L 0.359375 392.605469 L 0.324219 392.605469 C 0.324219 397.417969 4.222656 401.316406 9.035156 401.316406 C 11.46875 401.316406 13.671875 400.320312 15.246094 398.710938 L 398.5 15.464844 C 401.902344 12.058594 401.902344 6.542969 398.5 3.140625 C 396.800781 1.4375 394.570312 0.59375 392.34375 0.59375 L 392.34375 0.589844 L 9.035156 0.589844 C 4.222656 0.589844 0.324219 4.492188 0.324219 9.304688 C 0.324219 9.5625 0.335938 9.816406 0.359375 10.070312 Z M 17.714844 371.613281 L 17.714844 18.015625 L 371.308594 18.015625 Z M 17.714844 371.613281 " fill-opacity="1" fill-rule="nonzero"/></g></g></g></g><g clip-path="url(#82294e14bf)"><path fill="#eae8e0" d="M 1044.414062 268.714844 C 1048.882812 264.246094 1050.222656 257.523438 1047.800781 251.679688 C 1045.382812 245.839844 1039.679688 242.03125 1033.359375 242.03125 L 720.710938 242.03125 C 712.078125 242.03125 705.078125 249.027344 705.078125 257.664062 L 705.078125 570.308594 C 705.078125 576.632812 708.886719 582.332031 714.730469 584.753906 C 720.570312 587.171875 727.292969 585.835938 731.765625 581.363281 Z M 1044.414062 268.714844 " fill-opacity="1" fill-rule="evenodd"/></g><g clip-path="url(#5ebbea1507)"><path fill="#eae8e0" d="M 1032.171875 292.007812 C 1036.640625 287.535156 1037.980469 280.8125 1035.558594 274.972656 C 1033.140625 269.128906 1027.441406 265.320312 1021.117188 265.320312 L 708.46875 265.320312 C 699.835938 265.320312 692.839844 272.320312 692.839844 280.953125 L 692.839844 593.601562 C 692.839844 599.921875 696.644531 605.625 702.488281 608.042969 C 708.328125 610.464844 715.054688 609.125 719.523438 604.652344 Z M 1032.171875 292.007812 " fill-opacity="1" fill-rule="evenodd"/></g><g clip-path="url(#404323e4ad)"><path fill="#eae8e0" d="M 1057.6875 265.453125 C 1062.15625 260.980469 1063.496094 254.257812 1061.074219 248.414062 C 1058.65625 242.574219 1052.957031 238.765625 1046.632812 238.765625 L 733.984375 238.765625 C 725.351562 238.765625 718.351562 245.765625 718.351562 254.398438 L 718.351562 567.046875 C 718.351562 573.367188 722.160156 579.066406 728.003906 581.488281 C 733.84375 583.90625 740.570312 582.570312 745.039062 578.097656 Z M 1057.6875 265.453125 " fill-opacity="1" fill-rule="evenodd"/></g></g></g></g></svg>