<svg xmlns="http://www.w3.org/2000/svg" xmlns:xlink="http://www.w3.org/1999/xlink" width="1749" zoomAndPan="magnify" viewBox="0 0 1311.75 607.499987" height="810" preserveAspectRatio="xMidYMid meet" version="1.0"><metadata/><defs><g/><clipPath id="41faa1100a"><path d="M 752.09375 149.222656 L 908.519531 149.222656 L 908.519531 305.652344 L 752.09375 305.652344 Z M 752.09375 149.222656 " clip-rule="nonzero"/></clipPath><clipPath id="a672f173fd"><path d="M 752.09375 149.222656 L 1059.40625 149.222656 L 1059.40625 456.546875 L 752.09375 456.546875 Z M 752.09375 149.222656 " clip-rule="nonzero"/></clipPath><clipPath id="5e66120b32"><path d="M 905.800781 149.222656 C 820.910156 149.222656 752.09375 218.042969 752.09375 302.9375 C 752.09375 387.828125 820.910156 456.648438 905.800781 456.648438 C 990.691406 456.648438 1059.507812 387.828125 1059.507812 302.9375 C 1059.507812 218.042969 990.691406 149.222656 905.800781 149.222656 Z M 905.800781 149.222656 " clip-rule="nonzero"/></clipPath><clipPath id="b4f6c2bb71"><path d="M 604.820312 149.222656 L 761.246094 149.222656 L 761.246094 305.652344 L 604.820312 305.652344 Z M 604.820312 149.222656 " clip-rule="nonzero"/></clipPath><clipPath id="8dfa0298ef"><path d="M 604.820312 0.113281 L 761.246094 0.113281 L 761.246094 156.542969 L 604.820312 156.542969 Z M 604.820312 0.113281 " clip-rule="nonzero"/></clipPath><clipPath id="23767f3ef4"><path d="M 752.09375 0.113281 L 908.519531 0.113281 L 908.519531 156.542969 L 752.09375 156.542969 Z M 752.09375 0.113281 " clip-rule="nonzero"/></clipPath><clipPath id="a12e55edae"><path d="M 1051.027344 149.476562 L 1310.8125 149.476562 L 1310.8125 408.390625 L 1051.027344 408.390625 Z M 1051.027344 149.476562 " clip-rule="nonzero"/></clipPath><clipPath id="30a11de136"><path d="M 1060.566406 156.636719 L 1283.027344 156.636719 L 1283.027344 379.082031 L 1060.566406 379.082031 Z M 1060.566406 156.636719 " clip-rule="nonzero"/></clipPath><clipPath id="8d02e15986"><path d="M 1052.566406 171.695312 L 1275.265625 171.695312 L 1275.265625 394.605469 L 1052.566406 394.605469 Z M 1052.566406 171.695312 " clip-rule="nonzero"/></clipPath><clipPath id="5414686ace"><path d="M 1069.066406 154.523438 L 1292 154.523438 L 1292 377 L 1069.066406 377 Z M 1069.066406 154.523438 " clip-rule="nonzero"/></clipPath><clipPath id="7b02c7c670"><rect x="0" width="444" y="0" height="316"/></clipPath></defs><g clip-path="url(#41faa1100a)"><path stroke-linecap="butt" transform="matrix(0.543919, 0, 0, 0.543937, 752.092599, 149.221775)" fill="none" stroke-linejoin="miter" d="M 0.00211584 0.00161994 L 287.592355 0.00161994 L 287.592355 287.589455 L 0.00211584 287.589455 Z M 0.00211584 0.00161994 " stroke="#eae8e0" stroke-width="32.078999" stroke-opacity="1" stroke-miterlimit="4"/></g><g clip-path="url(#a672f173fd)"><g clip-path="url(#5e66120b32)"><path stroke-linecap="butt" transform="matrix(0.543919, 0, 0, 0.543937, 752.092599, 149.221775)" fill="none" stroke-linejoin="miter" d="M 282.593908 0.00161994 C 126.521712 0.00161994 0.00211584 126.524181 0.00211584 282.598356 C 0.00211584 438.66535 126.521712 565.187911 282.593908 565.187911 C 438.666103 565.187911 565.1857 438.66535 565.1857 282.598356 C 565.1857 126.524181 438.666103 0.00161994 282.593908 0.00161994 Z M 282.593908 0.00161994 " stroke="#eae8e0" stroke-width="32.078999" stroke-opacity="1" stroke-miterlimit="4"/></g></g><path stroke-linecap="butt" transform="matrix(0.543919, 0, 0, 0.543937, 905.801688, 149.20285)" fill="none" stroke-linejoin="miter" d="M -0.00166691 8.503327 L 452.637863 8.503327 " stroke="#eae8e0" stroke-width="17" stroke-opacity="1" stroke-miterlimit="4"/><g clip-path="url(#b4f6c2bb71)"><path stroke-linecap="butt" transform="matrix(0.543919, 0, 0, 0.543937, 604.819357, 149.221775)" fill="none" stroke-linejoin="miter" d="M 0.00175671 0.00161994 L 287.591996 0.00161994 L 287.591996 287.589455 L 0.00175671 287.589455 Z M 0.00175671 0.00161994 " stroke="#eae8e0" stroke-width="32.078999" stroke-opacity="1" stroke-miterlimit="4"/></g><g clip-path="url(#8dfa0298ef)"><path stroke-linecap="butt" transform="matrix(0.543919, 0, 0, 0.543937, 604.819357, 0.111713)" fill="none" stroke-linejoin="miter" d="M 0.00175671 0.00288243 L 287.591996 0.00288243 L 287.591996 287.590718 L 0.00175671 287.590718 Z M 0.00175671 0.00288243 " stroke="#eae8e0" stroke-width="32.078999" stroke-opacity="1" stroke-miterlimit="4"/></g><g clip-path="url(#23767f3ef4)"><path stroke-linecap="butt" transform="matrix(0.543919, 0, 0, 0.543937, 752.092599, 0.111713)" fill="none" stroke-linejoin="miter" d="M 0.00211584 0.00288243 L 287.592355 0.00288243 L 287.592355 287.590718 L 0.00211584 287.590718 Z M 0.00211584 0.00288243 " stroke="#eae8e0" stroke-width="32.078999" stroke-opacity="1" stroke-miterlimit="4"/></g><g clip-path="url(#a12e55edae)"><path fill="#eae8e0" d="M 1051.097656 155.367188 L 1051.097656 402.757812 L 1051.074219 402.757812 C 1051.074219 405.867188 1053.59375 408.390625 1056.707031 408.390625 C 1058.28125 408.390625 1059.707031 407.746094 1060.722656 406.707031 L 1308.570312 158.855469 C 1310.769531 156.652344 1310.769531 153.085938 1308.570312 150.886719 C 1307.472656 149.785156 1306.027344 149.238281 1304.589844 149.238281 L 1056.707031 149.238281 C 1053.59375 149.238281 1051.074219 151.761719 1051.074219 154.871094 C 1051.074219 155.039062 1051.082031 155.203125 1051.097656 155.367188 Z M 1062.320312 389.179688 L 1062.320312 160.503906 L 1290.984375 160.503906 Z M 1062.320312 389.179688 " fill-opacity="1" fill-rule="nonzero"/></g><g clip-path="url(#30a11de136)"><path fill="#eae8e0" d="M 1280.058594 173.890625 C 1282.949219 171.003906 1283.816406 166.65625 1282.25 162.875 C 1280.6875 159.097656 1277 156.636719 1272.910156 156.636719 L 1070.726562 156.636719 C 1065.144531 156.636719 1060.617188 161.160156 1060.617188 166.746094 L 1060.617188 368.9375 C 1060.617188 373.027344 1063.078125 376.710938 1066.859375 378.277344 C 1070.632812 379.839844 1074.980469 378.976562 1077.875 376.085938 Z M 1280.058594 173.890625 " fill-opacity="1" fill-rule="evenodd"/></g><g clip-path="url(#8d02e15986)"><path fill="#eae8e0" d="M 1272.144531 188.957031 C 1275.035156 186.0625 1275.898438 181.714844 1274.332031 177.9375 C 1272.769531 174.160156 1269.085938 171.695312 1264.996094 171.695312 L 1062.808594 171.695312 C 1057.226562 171.695312 1052.703125 176.222656 1052.703125 181.808594 L 1052.703125 384 C 1052.703125 388.085938 1055.160156 391.773438 1058.941406 393.339844 C 1062.71875 394.90625 1067.066406 394.039062 1069.957031 391.144531 Z M 1272.144531 188.957031 " fill-opacity="1" fill-rule="evenodd"/></g><g clip-path="url(#5414686ace)"><path fill="#eae8e0" d="M 1288.644531 171.78125 C 1291.535156 168.890625 1292.402344 164.542969 1290.835938 160.761719 C 1289.269531 156.988281 1285.585938 154.523438 1281.496094 154.523438 L 1079.308594 154.523438 C 1073.726562 154.523438 1069.199219 159.050781 1069.199219 164.632812 L 1069.199219 366.828125 C 1069.199219 370.914062 1071.664062 374.597656 1075.441406 376.164062 C 1079.21875 377.730469 1083.566406 376.867188 1086.457031 373.972656 Z M 1288.644531 171.78125 " fill-opacity="1" fill-rule="evenodd"/></g><g transform="matrix(1, 0, 0, 1, 309, 210)"><g clip-path="url(#7b02c7c670)"><g fill="#eae8e0" fill-opacity="1"><g transform="translate(31.034125, 230.512565)"><g><path d="M 27.9375 -140.265625 C 27.9375 -143.140625 27.425781 -145.46875 26.40625 -147.25 C 25.382812 -149.03125 23.925781 -150.410156 22.03125 -151.390625 C 20.132812 -152.378906 17.820312 -153.046875 15.09375 -153.390625 C 12.375 -153.734375 9.3125 -153.90625 5.90625 -153.90625 C 5.300781 -153.90625 5 -154.207031 5 -154.8125 L 5 -159.234375 C 5 -159.835938 5.300781 -160.140625 5.90625 -160.140625 L 77.796875 -160.140625 C 78.179688 -160.140625 78.425781 -160.023438 78.53125 -159.796875 C 78.644531 -159.578125 78.703125 -159.390625 78.703125 -159.234375 L 78.703125 -154.8125 C 78.703125 -154.65625 78.644531 -154.460938 78.53125 -154.234375 C 78.425781 -154.015625 78.179688 -153.90625 77.796875 -153.90625 C 75.453125 -153.90625 73.21875 -153.734375 71.09375 -153.390625 C 68.976562 -153.046875 67.125 -152.304688 65.53125 -151.171875 C 63.945312 -150.035156 62.679688 -148.40625 61.734375 -146.28125 C 60.785156 -144.164062 60.3125 -141.289062 60.3125 -137.65625 L 60.3125 1.140625 C 60.3125 6.742188 59.757812 12.398438 58.65625 18.109375 C 57.5625 23.828125 55.894531 29.335938 53.65625 34.640625 C 51.425781 39.941406 48.609375 44.898438 45.203125 49.515625 C 41.796875 54.140625 37.820312 58.171875 33.28125 61.609375 C 28.738281 65.054688 23.609375 67.765625 17.890625 69.734375 C 12.171875 71.703125 5.828125 72.6875 -1.140625 72.6875 C -10.597656 72.6875 -17.484375 71.566406 -21.796875 69.328125 C -26.117188 67.097656 -28.316406 64.242188 -28.390625 60.765625 C -28.390625 59.171875 -28.03125 57.671875 -27.3125 56.265625 C -26.59375 54.867188 -25.679688 53.640625 -24.578125 52.578125 C -23.484375 51.523438 -22.253906 50.691406 -20.890625 50.078125 C -19.535156 49.472656 -18.175781 49.171875 -16.8125 49.171875 C -14.539062 49.171875 -12.570312 49.4375 -10.90625 49.96875 C -9.238281 50.5 -7.78125 51.160156 -6.53125 51.953125 C -5.28125 52.753906 -4.179688 53.628906 -3.234375 54.578125 C -2.285156 55.523438 -1.300781 56.394531 -0.28125 57.1875 C 0.738281 57.976562 1.796875 58.640625 2.890625 59.171875 C 3.992188 59.703125 5.335938 59.96875 6.921875 59.96875 C 10.335938 59.96875 13.234375 59.285156 15.609375 57.921875 C 17.992188 56.554688 19.960938 54.679688 21.515625 52.296875 C 23.066406 49.910156 24.28125 47.128906 25.15625 43.953125 C 26.03125 40.773438 26.675781 37.382812 27.09375 33.78125 C 27.507812 30.1875 27.753906 26.476562 27.828125 22.65625 C 27.898438 18.832031 27.9375 15.066406 27.9375 11.359375 Z M 27.9375 -140.265625 "/></g></g></g><g fill="#eae8e0" fill-opacity="1"><g transform="translate(115.312301, 230.512565)"><g><path d="M 7.953125 0 C 7.492188 -0.15625 7.1875 -0.664062 7.03125 -1.53125 C 6.882812 -2.40625 6.8125 -3.066406 6.8125 -3.515625 C 6.8125 -3.898438 6.925781 -4.507812 7.15625 -5.34375 C 7.382812 -6.175781 7.648438 -6.664062 7.953125 -6.8125 C 8.929688 -7.269531 10.328125 -7.628906 12.140625 -7.890625 C 13.960938 -8.160156 15.78125 -8.691406 17.59375 -9.484375 C 19.414062 -10.273438 21.007812 -11.519531 22.375 -13.21875 C 23.738281 -14.925781 24.421875 -17.445312 24.421875 -20.78125 L 24.421875 -75.296875 C 24.421875 -77.117188 23.925781 -78.539062 22.9375 -79.5625 C 21.957031 -80.582031 20.707031 -81.359375 19.1875 -81.890625 C 17.675781 -82.421875 16.050781 -82.851562 14.3125 -83.1875 C 12.570312 -83.53125 10.90625 -83.929688 9.3125 -84.390625 C 8.851562 -84.535156 8.492188 -84.738281 8.234375 -85 C 7.972656 -85.269531 7.84375 -85.820312 7.84375 -86.65625 C 7.84375 -87.039062 7.953125 -87.421875 8.171875 -87.796875 C 8.398438 -88.171875 8.859375 -88.550781 9.546875 -88.9375 L 47.140625 -106.65625 C 47.441406 -106.800781 47.757812 -106.945312 48.09375 -107.09375 C 48.4375 -107.25 48.6875 -107.328125 48.84375 -107.328125 C 50.125 -107.328125 50.765625 -106.421875 50.765625 -104.609375 L 50.765625 -20.78125 C 50.765625 -17.445312 51.445312 -14.925781 52.8125 -13.21875 C 54.175781 -11.519531 55.765625 -10.273438 57.578125 -9.484375 C 59.398438 -8.691406 61.21875 -8.160156 63.03125 -7.890625 C 64.851562 -7.628906 66.253906 -7.269531 67.234375 -6.8125 C 67.535156 -6.664062 67.800781 -6.175781 68.03125 -5.34375 C 68.257812 -4.507812 68.375 -3.898438 68.375 -3.515625 C 68.375 -3.066406 68.296875 -2.40625 68.140625 -1.53125 C 67.992188 -0.664062 67.691406 -0.15625 67.234375 0 Z M 19.53125 -148.453125 C 19.53125 -153.296875 20.96875 -157.15625 23.84375 -160.03125 C 26.726562 -162.90625 30.59375 -164.34375 35.4375 -164.34375 C 40.28125 -164.34375 44.140625 -162.90625 47.015625 -160.03125 C 49.898438 -157.15625 51.34375 -153.296875 51.34375 -148.453125 C 51.34375 -143.597656 49.898438 -139.75 47.015625 -136.90625 C 44.140625 -134.070312 40.28125 -132.65625 35.4375 -132.65625 C 30.59375 -132.65625 26.726562 -134.070312 23.84375 -136.90625 C 20.96875 -139.75 19.53125 -143.597656 19.53125 -148.453125 Z M 19.53125 -148.453125 "/></g></g></g><g fill="#eae8e0" fill-opacity="1"><g transform="translate(184.711965, 230.512565)"><g><path d="M 66.5625 -3.40625 C 66.5625 -2.34375 66.484375 -1.507812 66.328125 -0.90625 C 66.179688 -0.300781 65.878906 0 65.421875 0 L 6.140625 0 C 5.378906 -0.15625 5 -1.289062 5 -3.40625 C 5 -5.375 5.378906 -6.507812 6.140625 -6.8125 C 7.117188 -7.269531 8.515625 -7.628906 10.328125 -7.890625 C 12.148438 -8.160156 13.96875 -8.691406 15.78125 -9.484375 C 17.601562 -10.273438 19.195312 -11.519531 20.5625 -13.21875 C 21.925781 -14.925781 22.609375 -17.445312 22.609375 -20.78125 L 22.609375 -154.8125 C 22.609375 -156.625 22.113281 -158.039062 21.125 -159.0625 C 20.144531 -160.082031 18.894531 -160.859375 17.375 -161.390625 C 15.863281 -161.921875 14.234375 -162.359375 12.484375 -162.703125 C 10.742188 -163.046875 9.082031 -163.441406 7.5 -163.890625 C 7.039062 -164.046875 6.675781 -164.253906 6.40625 -164.515625 C 6.144531 -164.785156 6.015625 -165.335938 6.015625 -166.171875 C 6.015625 -166.546875 6.128906 -166.921875 6.359375 -167.296875 C 6.585938 -167.679688 7.039062 -168.0625 7.71875 -168.4375 L 45.3125 -186.15625 C 45.613281 -186.300781 45.9375 -186.453125 46.28125 -186.609375 C 46.625 -186.765625 46.867188 -186.84375 47.015625 -186.84375 C 48.304688 -186.84375 48.953125 -185.929688 48.953125 -184.109375 L 48.953125 -71.328125 C 48.953125 -69.054688 49.382812 -67.65625 50.25 -67.125 C 51.125 -66.59375 52.207031 -66.328125 53.5 -66.328125 C 55.164062 -66.328125 57.242188 -66.835938 59.734375 -67.859375 C 62.234375 -68.878906 64.90625 -70.1875 67.75 -71.78125 C 70.59375 -73.375 73.429688 -75.15625 76.265625 -77.125 C 79.109375 -79.09375 81.644531 -81.039062 83.875 -82.96875 C 86.113281 -84.894531 87.953125 -86.671875 89.390625 -88.296875 C 90.828125 -89.929688 91.546875 -91.203125 91.546875 -92.109375 C 91.546875 -93.628906 90.828125 -94.648438 89.390625 -95.171875 C 87.953125 -95.703125 86.34375 -96.140625 84.5625 -96.484375 C 82.78125 -96.828125 81.171875 -97.265625 79.734375 -97.796875 C 78.296875 -98.328125 77.578125 -99.3125 77.578125 -100.75 C 77.578125 -101.800781 78.066406 -102.6875 79.046875 -103.40625 C 80.035156 -104.132812 81.097656 -104.5 82.234375 -104.5 L 130.046875 -104.5 C 133.453125 -104.5 135.15625 -103.625 135.15625 -101.875 C 135.15625 -100.664062 134.285156 -99.660156 132.546875 -98.859375 C 130.804688 -98.066406 128.644531 -97.289062 126.0625 -96.53125 C 123.488281 -95.78125 120.78125 -94.894531 117.9375 -93.875 C 115.101562 -92.851562 112.628906 -91.507812 110.515625 -89.84375 L 77.921875 -64.40625 C 77.921875 -63.789062 78.179688 -63.125 78.703125 -62.40625 C 79.234375 -61.6875 79.691406 -61.140625 80.078125 -60.765625 L 123.34375 -15.109375 C 125.3125 -13.066406 127.488281 -11.472656 129.875 -10.328125 C 132.257812 -9.191406 134.507812 -8.242188 136.625 -7.484375 C 138.75 -6.734375 140.507812 -6.09375 141.90625 -5.5625 C 143.3125 -5.03125 144.015625 -4.3125 144.015625 -3.40625 C 144.015625 -2.5 143.9375 -1.703125 143.78125 -1.015625 C 143.632812 -0.335938 143.109375 0 142.203125 0 L 80.296875 0 C 79.765625 0 79.441406 -0.300781 79.328125 -0.90625 C 79.222656 -1.507812 79.171875 -2.34375 79.171875 -3.40625 C 79.171875 -5.300781 79.546875 -6.4375 80.296875 -6.8125 C 81.054688 -7.1875 81.851562 -7.488281 82.6875 -7.71875 C 83.519531 -7.945312 84.253906 -8.269531 84.890625 -8.6875 C 85.535156 -9.101562 86.066406 -9.648438 86.484375 -10.328125 C 86.898438 -11.015625 87.109375 -12 87.109375 -13.28125 C 87.109375 -14.113281 86.578125 -15.226562 85.515625 -16.625 C 84.460938 -18.03125 83.367188 -19.34375 82.234375 -20.5625 L 50.546875 -54.171875 C 50.546875 -54.253906 50.503906 -54.332031 50.421875 -54.40625 L 50.3125 -54.40625 C 49.863281 -54.40625 49.523438 -53.835938 49.296875 -52.703125 C 49.066406 -51.566406 48.953125 -50.28125 48.953125 -48.84375 L 48.953125 -20.78125 C 48.953125 -17.445312 49.632812 -14.925781 51 -13.21875 C 52.363281 -11.519531 53.953125 -10.273438 55.765625 -9.484375 C 57.585938 -8.691406 59.40625 -8.160156 61.21875 -7.890625 C 63.03125 -7.628906 64.429688 -7.269531 65.421875 -6.8125 C 66.179688 -6.507812 66.5625 -5.375 66.5625 -3.40625 Z M 66.5625 -3.40625 "/></g></g></g><g fill="#eae8e0" fill-opacity="1"><g transform="translate(311.92205, 230.512565)"><g><path d="M 8.515625 -53.046875 C 8.515625 -60.160156 10.085938 -66.972656 13.234375 -73.484375 C 16.378906 -79.992188 20.597656 -85.75 25.890625 -90.75 C 31.191406 -95.75 37.363281 -99.722656 44.40625 -102.671875 C 51.445312 -105.628906 58.867188 -107.109375 66.671875 -107.109375 C 74.847656 -107.109375 82.609375 -105.707031 89.953125 -102.90625 C 97.296875 -100.101562 103.75 -96.257812 109.3125 -91.375 C 114.882812 -86.488281 119.296875 -80.734375 122.546875 -74.109375 C 125.804688 -67.484375 127.4375 -60.3125 127.4375 -52.59375 C 127.4375 -44.71875 125.941406 -37.390625 122.953125 -30.609375 C 119.960938 -23.828125 115.816406 -17.9375 110.515625 -12.9375 C 105.210938 -7.945312 98.90625 -4.03125 91.59375 -1.1875 C 84.289062 1.644531 76.320312 3.0625 67.6875 3.0625 C 59.132812 3.0625 51.242188 1.609375 44.015625 -1.296875 C 36.785156 -4.210938 30.535156 -8.1875 25.265625 -13.21875 C 20.003906 -18.257812 15.894531 -24.1875 12.9375 -31 C 9.988281 -37.820312 8.515625 -45.171875 8.515625 -53.046875 Z M 37.59375 -60.203125 C 37.59375 -56.109375 37.894531 -51.882812 38.5 -47.53125 C 39.101562 -43.175781 40.007812 -38.9375 41.21875 -34.8125 C 42.4375 -30.6875 43.972656 -26.804688 45.828125 -23.171875 C 47.679688 -19.535156 49.894531 -16.332031 52.46875 -13.5625 C 55.039062 -10.800781 57.957031 -8.625 61.21875 -7.03125 C 64.476562 -5.445312 68.148438 -4.65625 72.234375 -4.65625 C 76.703125 -4.65625 80.546875 -5.804688 83.765625 -8.109375 C 86.984375 -10.421875 89.632812 -13.429688 91.71875 -17.140625 C 93.800781 -20.859375 95.332031 -25.023438 96.3125 -29.640625 C 97.300781 -34.265625 97.796875 -38.882812 97.796875 -43.5 C 97.796875 -47.207031 97.453125 -51.125 96.765625 -55.25 C 96.085938 -59.382812 95.066406 -63.472656 93.703125 -67.515625 C 92.335938 -71.566406 90.671875 -75.445312 88.703125 -79.15625 C 86.734375 -82.875 84.441406 -86.148438 81.828125 -88.984375 C 79.222656 -91.828125 76.3125 -94.082031 73.09375 -95.75 C 69.875 -97.414062 66.367188 -98.25 62.578125 -98.25 C 58.335938 -98.25 54.644531 -97.09375 51.5 -94.78125 C 48.363281 -92.46875 45.769531 -89.472656 43.71875 -85.796875 C 41.675781 -82.128906 40.144531 -78.039062 39.125 -73.53125 C 38.101562 -69.03125 37.59375 -64.585938 37.59375 -60.203125 Z M 37.59375 -60.203125 "/></g></g></g></g></g></svg>