<svg xmlns="http://www.w3.org/2000/svg" xmlns:xlink="http://www.w3.org/1999/xlink" width="1619" zoomAndPan="magnify" viewBox="0 0 1214.25 573.749983" height="765" preserveAspectRatio="xMidYMid meet" version="1.0"><metadata/><defs><g/><clipPath id="5fad32b74f"><path d="M 248 0.0507812 L 1213.5 0.0507812 L 1213.5 508 L 248 508 Z M 248 0.0507812 " clip-rule="nonzero"/></clipPath><clipPath id="feb4824e73"><path d="M 406.386719 149.191406 L 562.71875 149.191406 L 562.71875 305.542969 L 406.386719 305.542969 Z M 406.386719 149.191406 " clip-rule="nonzero"/></clipPath><clipPath id="3b9ecf331f"><path d="M 406.386719 149.191406 L 713.511719 149.191406 L 713.511719 456.359375 L 406.386719 456.359375 Z M 406.386719 149.191406 " clip-rule="nonzero"/></clipPath><clipPath id="f72a0c32e9"><path d="M 560 149.191406 C 475.160156 149.191406 406.386719 217.976562 406.386719 302.824219 C 406.386719 387.675781 475.160156 456.460938 560 456.460938 C 644.835938 456.460938 713.613281 387.675781 713.613281 302.824219 C 713.613281 217.976562 644.835938 149.191406 560 149.191406 Z M 560 149.191406 " clip-rule="nonzero"/></clipPath><clipPath id="5be9144cb5"><path d="M 259.207031 149.191406 L 415.535156 149.191406 L 415.535156 305.542969 L 259.207031 305.542969 Z M 259.207031 149.191406 " clip-rule="nonzero"/></clipPath><clipPath id="1ec7a24741"><path d="M 259.207031 0.15625 L 415.535156 0.15625 L 415.535156 156.511719 L 259.207031 156.511719 Z M 259.207031 0.15625 " clip-rule="nonzero"/></clipPath><clipPath id="1ea81ec8c8"><path d="M 406.386719 0.15625 L 562.71875 0.15625 L 562.71875 156.511719 L 406.386719 156.511719 Z M 406.386719 0.15625 " clip-rule="nonzero"/></clipPath><clipPath id="2cbaf2dd86"><path d="M 705.136719 149.445312 L 964.761719 149.445312 L 964.761719 408.226562 L 705.136719 408.226562 Z M 705.136719 149.445312 " clip-rule="nonzero"/></clipPath><clipPath id="58cbeda2d0"><path d="M 714.667969 156.601562 L 936.992188 156.601562 L 936.992188 378.933594 L 714.667969 378.933594 Z M 714.667969 156.601562 " clip-rule="nonzero"/></clipPath><clipPath id="4e66514c62"><path d="M 706.671875 171.65625 L 929.234375 171.65625 L 929.234375 394 L 706.671875 394 Z M 706.671875 171.65625 " clip-rule="nonzero"/></clipPath><clipPath id="dc4db19559"><path d="M 723.164062 154.488281 L 946 154.488281 L 946 376.996094 L 723.164062 376.996094 Z M 723.164062 154.488281 " clip-rule="nonzero"/></clipPath><clipPath id="fc10e6c883"><path d="M 0.0078125 255 L 355 255 L 355 507.820312 L 0.0078125 507.820312 Z M 0.0078125 255 " clip-rule="nonzero"/></clipPath><clipPath id="a8d564f59b"><rect x="0" width="355" y="0" height="253"/></clipPath><clipPath id="7704f30f5a"><rect x="0" width="966" y="0" height="508"/></clipPath></defs><g clip-path="url(#5fad32b74f)"><g transform="matrix(1, 0, 0, 1, 248, 0.00000000000000494)"><g clip-path="url(#7704f30f5a)"><g clip-path="url(#feb4824e73)"><path stroke-linecap="butt" transform="matrix(0.543582, 0, 0, 0.543658, 406.387204, 149.190722)" fill="none" stroke-linejoin="miter" d="M -0.000893604 0.00125775 L 287.595358 0.00125775 L 287.595358 287.59315 L -0.000893604 287.59315 Z M -0.000893604 0.00125775 " stroke="#eae8e0" stroke-width="32.078999" stroke-opacity="1" stroke-miterlimit="4"/></g><g clip-path="url(#3b9ecf331f)"><g clip-path="url(#f72a0c32e9)"><path stroke-linecap="butt" transform="matrix(0.543582, 0, 0, 0.543658, 406.387204, 149.190722)" fill="none" stroke-linejoin="miter" d="M 282.593809 0.00125775 C 126.518174 0.00125775 -0.000893604 126.524159 -0.000893604 282.592302 C -0.000893604 438.66763 126.518174 565.190531 282.593809 565.190531 C 438.662258 565.190531 565.188512 438.66763 565.188512 282.592302 C 565.188512 126.524159 438.662258 0.00125775 282.593809 0.00125775 Z M 282.593809 0.00125775 " stroke="#eae8e0" stroke-width="32.078999" stroke-opacity="1" stroke-miterlimit="4"/></g></g><path stroke-linecap="butt" transform="matrix(0.543582, 0, 0, 0.543658, 560.001012, 149.171808)" fill="none" stroke-linejoin="miter" d="M -0.00186207 8.500129 L 452.63832 8.500129 " stroke="#eae8e0" stroke-width="17" stroke-opacity="1" stroke-miterlimit="4"/><g clip-path="url(#5be9144cb5)"><path stroke-linecap="butt" transform="matrix(0.543582, 0, 0, 0.543658, 259.205309, 149.190722)" fill="none" stroke-linejoin="miter" d="M 0.00316765 0.00125775 L 287.592233 0.00125775 L 287.592233 287.59315 L 0.00316765 287.59315 Z M 0.00316765 0.00125775 " stroke="#eae8e0" stroke-width="32.078999" stroke-opacity="1" stroke-miterlimit="4"/></g><g clip-path="url(#1ec7a24741)"><path stroke-linecap="butt" transform="matrix(0.543582, 0, 0, 0.543658, 259.205309, 0.157233)" fill="none" stroke-linejoin="miter" d="M 0.00316765 -0.00180872 L 287.592233 -0.00180872 L 287.592233 287.597269 L 0.00316765 287.597269 Z M 0.00316765 -0.00180872 " stroke="#eae8e0" stroke-width="32.078999" stroke-opacity="1" stroke-miterlimit="4"/></g><g clip-path="url(#1ea81ec8c8)"><path stroke-linecap="butt" transform="matrix(0.543582, 0, 0, 0.543658, 406.387204, 0.157233)" fill="none" stroke-linejoin="miter" d="M -0.000893604 -0.00180872 L 287.595358 -0.00180872 L 287.595358 287.597269 L -0.000893604 287.597269 Z M -0.000893604 -0.00180872 " stroke="#eae8e0" stroke-width="32.078999" stroke-opacity="1" stroke-miterlimit="4"/></g><g clip-path="url(#2cbaf2dd86)"><path fill="#eae8e0" d="M 705.207031 155.332031 L 705.207031 402.59375 L 705.183594 402.59375 C 705.183594 405.707031 707.703125 408.226562 710.8125 408.226562 C 712.386719 408.226562 713.808594 407.582031 714.828125 406.542969 L 962.519531 158.820312 C 964.71875 156.617188 964.71875 153.054688 962.519531 150.855469 C 961.421875 149.753906 959.980469 149.207031 958.539062 149.207031 L 710.8125 149.207031 C 707.703125 149.207031 705.183594 151.726562 705.183594 154.839844 C 705.183594 155.003906 705.191406 155.167969 705.207031 155.332031 Z M 716.421875 389.027344 L 716.421875 160.46875 L 944.945312 160.46875 Z M 716.421875 389.027344 " fill-opacity="1" fill-rule="nonzero"/></g><g clip-path="url(#58cbeda2d0)"><path fill="#eae8e0" d="M 934.027344 173.847656 C 936.914062 170.960938 937.78125 166.613281 936.214844 162.835938 C 934.652344 159.0625 930.96875 156.601562 926.882812 156.601562 L 724.824219 156.601562 C 719.242188 156.601562 714.71875 161.121094 714.71875 166.707031 L 714.71875 368.792969 C 714.71875 372.878906 717.179688 376.5625 720.957031 378.128906 C 724.730469 379.691406 729.078125 378.828125 731.96875 375.9375 Z M 934.027344 173.847656 " fill-opacity="1" fill-rule="evenodd"/></g><g clip-path="url(#4e66514c62)"><path fill="#eae8e0" d="M 926.117188 188.90625 C 929.003906 186.011719 929.871094 181.667969 928.304688 177.894531 C 926.742188 174.117188 923.058594 171.65625 918.972656 171.65625 L 716.910156 171.65625 C 711.332031 171.65625 706.808594 176.179688 706.808594 181.757812 L 706.808594 383.847656 C 706.808594 387.933594 709.269531 391.621094 713.046875 393.183594 C 716.820312 394.746094 721.167969 393.882812 724.054688 390.992188 Z M 926.117188 188.90625 " fill-opacity="1" fill-rule="evenodd"/></g><g clip-path="url(#dc4db19559)"><path fill="#eae8e0" d="M 942.605469 171.738281 C 945.492188 168.847656 946.359375 164.503906 944.792969 160.726562 C 943.230469 156.953125 939.546875 154.488281 935.460938 154.488281 L 733.402344 154.488281 C 727.820312 154.488281 723.296875 159.015625 723.296875 164.59375 L 723.296875 366.683594 C 723.296875 370.769531 725.757812 374.453125 729.535156 376.019531 C 733.308594 377.582031 737.65625 376.71875 740.546875 373.828125 Z M 942.605469 171.738281 " fill-opacity="1" fill-rule="evenodd"/></g><g clip-path="url(#fc10e6c883)"><g transform="matrix(1, 0, 0, 1, -0.000000000000056843, 255)"><g clip-path="url(#a8d564f59b)"><g fill="#eae8e0" fill-opacity="1"><g transform="translate(24.136741, 184.663367)"><g><path d="M 22.390625 -112.40625 C 22.390625 -114.707031 21.976562 -116.570312 21.15625 -118 C 20.34375 -119.425781 19.175781 -120.53125 17.65625 -121.3125 C 16.132812 -122.101562 14.28125 -122.632812 12.09375 -122.90625 C 9.914062 -123.175781 7.460938 -123.3125 4.734375 -123.3125 C 4.242188 -123.3125 4 -123.554688 4 -124.046875 L 4 -127.59375 C 4 -128.082031 4.242188 -128.328125 4.734375 -128.328125 L 62.34375 -128.328125 C 62.644531 -128.328125 62.84375 -128.234375 62.9375 -128.046875 C 63.03125 -127.867188 63.078125 -127.71875 63.078125 -127.59375 L 63.078125 -124.046875 C 63.078125 -123.921875 63.03125 -123.765625 62.9375 -123.578125 C 62.84375 -123.398438 62.644531 -123.3125 62.34375 -123.3125 C 60.457031 -123.3125 58.664062 -123.175781 56.96875 -122.90625 C 55.269531 -122.632812 53.785156 -122.039062 52.515625 -121.125 C 51.242188 -120.21875 50.226562 -118.914062 49.46875 -117.21875 C 48.707031 -115.519531 48.328125 -113.21875 48.328125 -110.3125 L 48.328125 0.90625 C 48.328125 5.394531 47.882812 9.929688 47 14.515625 C 46.125 19.097656 44.789062 23.507812 43 27.75 C 41.207031 32 38.945312 35.972656 36.21875 39.671875 C 33.488281 43.378906 30.300781 46.613281 26.65625 49.375 C 23.019531 52.132812 18.910156 54.300781 14.328125 55.875 C 9.753906 57.457031 4.675781 58.25 -0.90625 58.25 C -8.488281 58.25 -14.007812 57.351562 -17.46875 55.5625 C -20.925781 53.769531 -22.6875 51.476562 -22.75 48.6875 C -22.75 47.414062 -22.460938 46.21875 -21.890625 45.09375 C -21.316406 43.96875 -20.585938 42.976562 -19.703125 42.125 C -18.828125 41.28125 -17.84375 40.613281 -16.75 40.125 C -15.65625 39.644531 -14.5625 39.40625 -13.46875 39.40625 C -11.644531 39.40625 -10.066406 39.617188 -8.734375 40.046875 C -7.398438 40.472656 -6.234375 41.003906 -5.234375 41.640625 C -4.234375 42.273438 -3.351562 42.972656 -2.59375 43.734375 C -1.832031 44.492188 -1.039062 45.191406 -0.21875 45.828125 C 0.59375 46.460938 1.4375 46.988281 2.3125 47.40625 C 3.195312 47.832031 4.273438 48.046875 5.546875 48.046875 C 8.273438 48.046875 10.59375 47.5 12.5 46.40625 C 14.414062 45.320312 15.992188 43.820312 17.234375 41.90625 C 18.484375 40 19.457031 37.769531 20.15625 35.21875 C 20.851562 32.675781 21.367188 29.960938 21.703125 27.078125 C 22.035156 24.191406 22.234375 21.21875 22.296875 18.15625 C 22.359375 15.09375 22.390625 12.070312 22.390625 9.09375 Z M 22.390625 -112.40625 "/></g></g></g><g fill="#eae8e0" fill-opacity="1"><g transform="translate(91.668725, 184.663367)"><g><path d="M 6.375 0 C 6.007812 -0.125 5.765625 -0.535156 5.640625 -1.234375 C 5.515625 -1.929688 5.453125 -2.460938 5.453125 -2.828125 C 5.453125 -3.128906 5.539062 -3.613281 5.71875 -4.28125 C 5.90625 -4.945312 6.125 -5.335938 6.375 -5.453125 C 7.15625 -5.816406 8.273438 -6.101562 9.734375 -6.3125 C 11.191406 -6.53125 12.648438 -6.957031 14.109375 -7.59375 C 15.566406 -8.238281 16.835938 -9.242188 17.921875 -10.609375 C 19.015625 -11.972656 19.5625 -13.988281 19.5625 -16.65625 L 19.5625 -60.34375 C 19.5625 -61.800781 19.164062 -62.9375 18.375 -63.75 C 17.59375 -64.570312 16.59375 -65.191406 15.375 -65.609375 C 14.164062 -66.035156 12.863281 -66.382812 11.46875 -66.65625 C 10.070312 -66.9375 8.738281 -67.257812 7.46875 -67.625 C 7.101562 -67.738281 6.8125 -67.898438 6.59375 -68.109375 C 6.382812 -68.328125 6.28125 -68.769531 6.28125 -69.4375 C 6.28125 -69.738281 6.367188 -70.039062 6.546875 -70.34375 C 6.734375 -70.65625 7.097656 -70.960938 7.640625 -71.265625 L 37.765625 -85.453125 C 38.015625 -85.578125 38.273438 -85.695312 38.546875 -85.8125 C 38.816406 -85.9375 39.015625 -86 39.140625 -86 C 40.171875 -86 40.6875 -85.273438 40.6875 -83.828125 L 40.6875 -16.65625 C 40.6875 -13.988281 41.226562 -11.972656 42.3125 -10.609375 C 43.40625 -9.242188 44.679688 -8.238281 46.140625 -7.59375 C 47.597656 -6.957031 49.054688 -6.53125 50.515625 -6.3125 C 51.972656 -6.101562 53.09375 -5.816406 53.875 -5.453125 C 54.125 -5.335938 54.335938 -4.945312 54.515625 -4.28125 C 54.691406 -3.613281 54.78125 -3.128906 54.78125 -2.828125 C 54.78125 -2.460938 54.71875 -1.929688 54.59375 -1.234375 C 54.476562 -0.535156 54.238281 -0.125 53.875 0 Z M 15.65625 -118.953125 C 15.65625 -122.835938 16.804688 -125.929688 19.109375 -128.234375 C 21.421875 -130.535156 24.515625 -131.6875 28.390625 -131.6875 C 32.273438 -131.6875 35.367188 -130.535156 37.671875 -128.234375 C 39.984375 -125.929688 41.140625 -122.835938 41.140625 -118.953125 C 41.140625 -115.066406 39.984375 -111.984375 37.671875 -109.703125 C 35.367188 -107.429688 32.273438 -106.296875 28.390625 -106.296875 C 24.515625 -106.296875 21.421875 -107.429688 19.109375 -109.703125 C 16.804688 -111.984375 15.65625 -115.066406 15.65625 -118.953125 Z M 15.65625 -118.953125 "/></g></g></g><g fill="#eae8e0" fill-opacity="1"><g transform="translate(147.278578, 184.663367)"><g><path d="M 53.328125 -2.734375 C 53.328125 -1.878906 53.265625 -1.207031 53.140625 -0.71875 C 53.023438 -0.238281 52.785156 0 52.421875 0 L 4.921875 0 C 4.304688 -0.125 4 -1.035156 4 -2.734375 C 4 -4.304688 4.304688 -5.210938 4.921875 -5.453125 C 5.703125 -5.816406 6.820312 -6.101562 8.28125 -6.3125 C 9.738281 -6.53125 11.191406 -6.957031 12.640625 -7.59375 C 14.097656 -8.238281 15.375 -9.242188 16.46875 -10.609375 C 17.5625 -11.972656 18.109375 -13.988281 18.109375 -16.65625 L 18.109375 -124.046875 C 18.109375 -125.503906 17.710938 -126.640625 16.921875 -127.453125 C 16.140625 -128.273438 15.140625 -128.898438 13.921875 -129.328125 C 12.710938 -129.753906 11.410156 -130.101562 10.015625 -130.375 C 8.617188 -130.644531 7.28125 -130.960938 6 -131.328125 C 5.632812 -131.453125 5.347656 -131.617188 5.140625 -131.828125 C 4.929688 -132.035156 4.828125 -132.476562 4.828125 -133.15625 C 4.828125 -133.457031 4.914062 -133.757812 5.09375 -134.0625 C 5.28125 -134.363281 5.644531 -134.664062 6.1875 -134.96875 L 36.3125 -149.171875 C 36.550781 -149.285156 36.804688 -149.40625 37.078125 -149.53125 C 37.359375 -149.65625 37.554688 -149.71875 37.671875 -149.71875 C 38.703125 -149.71875 39.21875 -148.988281 39.21875 -147.53125 L 39.21875 -57.15625 C 39.21875 -55.332031 39.566406 -54.207031 40.265625 -53.78125 C 40.960938 -53.363281 41.828125 -53.15625 42.859375 -53.15625 C 44.203125 -53.15625 45.875 -53.5625 47.875 -54.375 C 49.875 -55.195312 52.007812 -56.242188 54.28125 -57.515625 C 56.5625 -58.796875 58.835938 -60.222656 61.109375 -61.796875 C 63.390625 -63.367188 65.421875 -64.925781 67.203125 -66.46875 C 68.992188 -68.019531 70.46875 -69.445312 71.625 -70.75 C 72.78125 -72.0625 73.359375 -73.082031 73.359375 -73.8125 C 73.359375 -75.019531 72.78125 -75.835938 71.625 -76.265625 C 70.46875 -76.691406 69.175781 -77.039062 67.75 -77.3125 C 66.332031 -77.582031 65.046875 -77.929688 63.890625 -78.359375 C 62.734375 -78.785156 62.15625 -79.578125 62.15625 -80.734375 C 62.15625 -81.578125 62.550781 -82.285156 63.34375 -82.859375 C 64.132812 -83.441406 64.984375 -83.734375 65.890625 -83.734375 L 104.203125 -83.734375 C 106.929688 -83.734375 108.296875 -83.035156 108.296875 -81.640625 C 108.296875 -80.671875 107.597656 -79.863281 106.203125 -79.21875 C 104.804688 -78.582031 103.078125 -77.960938 101.015625 -77.359375 C 98.953125 -76.753906 96.785156 -76.039062 94.515625 -75.21875 C 92.242188 -74.394531 90.253906 -73.316406 88.546875 -71.984375 L 62.4375 -51.609375 C 62.4375 -51.117188 62.644531 -50.582031 63.0625 -50 C 63.488281 -49.425781 63.851562 -48.988281 64.15625 -48.6875 L 98.84375 -12.109375 C 100.414062 -10.460938 102.15625 -9.1875 104.0625 -8.28125 C 105.976562 -7.375 107.785156 -6.613281 109.484375 -6 C 111.179688 -5.394531 112.59375 -4.878906 113.71875 -4.453125 C 114.84375 -4.035156 115.40625 -3.460938 115.40625 -2.734375 C 115.40625 -2.003906 115.34375 -1.363281 115.21875 -0.8125 C 115.09375 -0.269531 114.671875 0 113.953125 0 L 64.34375 0 C 63.914062 0 63.65625 -0.238281 63.5625 -0.71875 C 63.476562 -1.207031 63.4375 -1.878906 63.4375 -2.734375 C 63.4375 -4.242188 63.738281 -5.148438 64.34375 -5.453125 C 64.945312 -5.765625 65.582031 -6.007812 66.25 -6.1875 C 66.914062 -6.375 67.503906 -6.632812 68.015625 -6.96875 C 68.535156 -7.300781 68.960938 -7.738281 69.296875 -8.28125 C 69.640625 -8.820312 69.8125 -9.609375 69.8125 -10.640625 C 69.8125 -11.316406 69.382812 -12.210938 68.53125 -13.328125 C 67.675781 -14.453125 66.796875 -15.5 65.890625 -16.46875 L 40.5 -43.40625 C 40.5 -43.46875 40.46875 -43.53125 40.40625 -43.59375 L 40.3125 -43.59375 C 39.945312 -43.59375 39.671875 -43.132812 39.484375 -42.21875 C 39.304688 -41.3125 39.21875 -40.285156 39.21875 -39.140625 L 39.21875 -16.65625 C 39.21875 -13.988281 39.765625 -11.972656 40.859375 -10.609375 C 41.953125 -9.242188 43.226562 -8.238281 44.6875 -7.59375 C 46.144531 -6.957031 47.597656 -6.53125 49.046875 -6.3125 C 50.503906 -6.101562 51.628906 -5.816406 52.421875 -5.453125 C 53.023438 -5.210938 53.328125 -4.304688 53.328125 -2.734375 Z M 53.328125 -2.734375 "/></g></g></g><g fill="#eae8e0" fill-opacity="1"><g transform="translate(249.211841, 184.663367)"><g><path d="M 6.828125 -42.5 C 6.828125 -48.207031 8.082031 -53.671875 10.59375 -58.890625 C 13.113281 -64.109375 16.5 -68.71875 20.75 -72.71875 C 25 -76.71875 29.941406 -79.898438 35.578125 -82.265625 C 41.222656 -84.640625 47.171875 -85.828125 53.421875 -85.828125 C 59.972656 -85.828125 66.191406 -84.703125 72.078125 -82.453125 C 77.960938 -80.210938 83.132812 -77.132812 87.59375 -73.21875 C 92.050781 -69.300781 95.582031 -64.6875 98.1875 -59.375 C 100.800781 -54.070312 102.109375 -48.328125 102.109375 -42.140625 C 102.109375 -35.828125 100.910156 -29.953125 98.515625 -24.515625 C 96.117188 -19.085938 92.796875 -14.375 88.546875 -10.375 C 84.304688 -6.375 79.257812 -3.234375 73.40625 -0.953125 C 67.550781 1.316406 61.164062 2.453125 54.25 2.453125 C 47.382812 2.453125 41.054688 1.285156 35.265625 -1.046875 C 29.472656 -3.378906 24.46875 -6.5625 20.25 -10.59375 C 16.03125 -14.632812 12.738281 -19.382812 10.375 -24.84375 C 8.007812 -30.300781 6.828125 -36.1875 6.828125 -42.5 Z M 30.125 -48.234375 C 30.125 -44.960938 30.363281 -41.582031 30.84375 -38.09375 C 31.332031 -34.601562 32.0625 -31.203125 33.03125 -27.890625 C 34.007812 -24.585938 35.238281 -21.476562 36.71875 -18.5625 C 38.207031 -15.65625 39.984375 -13.09375 42.046875 -10.875 C 44.109375 -8.65625 46.441406 -6.910156 49.046875 -5.640625 C 51.660156 -4.367188 54.609375 -3.734375 57.890625 -3.734375 C 61.460938 -3.734375 64.535156 -4.65625 67.109375 -6.5 C 69.691406 -8.351562 71.816406 -10.765625 73.484375 -13.734375 C 75.160156 -16.710938 76.390625 -20.050781 77.171875 -23.75 C 77.960938 -27.457031 78.359375 -31.160156 78.359375 -34.859375 C 78.359375 -37.828125 78.082031 -40.960938 77.53125 -44.265625 C 76.988281 -47.578125 76.171875 -50.851562 75.078125 -54.09375 C 73.992188 -57.34375 72.660156 -60.453125 71.078125 -63.421875 C 69.503906 -66.398438 67.671875 -69.023438 65.578125 -71.296875 C 63.484375 -73.578125 61.144531 -75.382812 58.5625 -76.71875 C 55.988281 -78.050781 53.179688 -78.71875 50.140625 -78.71875 C 46.742188 -78.71875 43.785156 -77.789062 41.265625 -75.9375 C 38.753906 -74.09375 36.675781 -71.695312 35.03125 -68.75 C 33.394531 -65.8125 32.164062 -62.535156 31.34375 -58.921875 C 30.53125 -55.316406 30.125 -51.753906 30.125 -48.234375 Z M 30.125 -48.234375 "/></g></g></g></g></g></g></g></g></g></svg>