<svg xmlns="http://www.w3.org/2000/svg"
     viewBox="0 -91 971 925"
     width="400" height="370">

  <g transform="scale(1,-1) translate(0,-834)">

    <!-- ═══ 主体 (扌 + 丸 连笔) ═══ -->
    <g id="main-shou-wan" fill="#1a1a1a">
      <path d="M205 603H83Q59 603 40 597L23 640Q46 636 73 636H205V714Q205 775 201 822Q344 813 344 793Q344 783 317 767V636H359Q393 688 397.0 692.0Q401 696 405 696Q414 696 459.0 659.5Q504 623 504.0 613.0Q504 603 484 603H317V497Q396 509 475 522Q481 522 481 520Q481 516 463.0 509.5Q445 503 398 482Q466 474 523 456Q531 512 534 565L470 554Q447 550 434 543L410 582Q432 583 458 587L537 600Q540 664 540.0 722.0Q540 780 538 834Q609 827 644.0 821.0Q679 815 685.0 811.0Q691 807 691.0 799.5Q691 792 675 785Q668 782 666 756L651 620L706 629Q733 682 748 682Q755 682 793.0 659.5Q831 637 850.0 622.5Q869 608 869.0 597.5Q869 587 828 578Q812 504 812.0 444.0Q812 384 827.5 347.5Q843 311 857 311Q882 311 910 410Q914 424 917.0 424.0Q920 424 920 406V383Q920 319 928.0 289.5Q936 260 953.5 240.5Q971 221 971.0 202.5Q971 184 954.0 170.5Q937 157 910 157Q863 157 812.5 184.0Q762 211 733.0 277.0Q704 343 704 473Q704 533 711 596L647 585Q634 470 612 414Q685 364 685 304Q685 273 665.5 250.5Q646 228 622.5 228.0Q599 228 588.5 240.0Q578 252 572.0 272.5Q566 293 558 312Q521 264 468.0 230.0Q415 196 354.5 177.0Q294 158 284 158Q280 158 280.0 161.0Q280 164 285 166Q370 202 428.0 259.5Q486 317 509 391Q464 442 387 477Q341 457 317 446V269Q317 233 310.5 212.0Q304 191 287.0 177.5Q270 164 236.0 155.0Q202 146 184.5 146.0Q167 146 166 169Q163 218 85 244Q75 248 75.0 251.0Q75 254 88 254Q143 255 167.0 259.0Q191 263 198.0 272.5Q205 282 205 302V395Q147 369 91 339Q81 334 76.5 334.0Q72 334 69.0 338.0Q66 342 54.5 374.5Q43 407 27 465Q89 469 205 482Z"/>
    </g>

    <!-- ═══ 灬 四点底 — 各自独立 ═══ -->
    <!-- dot-left (x≈135, 最左) -->
    <g id="huo-dot-1" fill="#1a1a1a">
      <path d="M135 160Q144 160 173.5 116.5Q203 73 203.0 25.5Q203 -22 171.5 -56.5Q140 -91 105.5 -91.0Q71 -91 54.5 -73.0Q38 -55 38.0 -26.0Q38 3 73 28Q138 75 138 122Q138 133 135.5 142.5Q133 152 133.0 156.0Q133 160 135 160Z"/>
    </g>
    <!-- dot-right (x≈739, 最右) -->
    <g id="huo-dot-2" fill="#1a1a1a">
      <path d="M739 151Q775 151 829.5 132.5Q884 114 918.0 77.5Q952 41 952 1Q952 -80 875 -80Q852 -80 835.5 -60.5Q819 -41 815.0 4.0Q811 49 795.0 80.0Q779 111 740 139Q731 145 731.0 148.0Q731 151 739 151Z"/>
    </g>
    <!-- dot-center-right (x≈509) -->
    <g id="huo-dot-3" fill="#1a1a1a">
      <path d="M509 144Q538 144 588.5 123.0Q639 102 671.0 63.0Q703 24 703.0 -11.0Q703 -46 675.5 -61.0Q648 -76 626.5 -76.0Q605 -76 591.5 -60.0Q578 -44 575 -15Q569 44 553.0 76.0Q537 108 504 127Q496 132 496.0 138.0Q496 144 509 144Z"/>
    </g>
    <!-- dot-center-left (x≈298) -->
    <g id="huo-dot-4" fill="#1a1a1a">
      <path d="M298 130Q319 130 362.5 111.5Q406 93 432.5 61.5Q459 30 459.0 -7.5Q459 -45 434.5 -63.5Q410 -82 387.0 -82.0Q364 -82 348.0 -64.5Q332 -47 334.0 -26.5Q336 -6 336 9Q336 88 297 118Q290 123 290.0 126.5Q290 130 298 130Z"/>
    </g>

  </g>
</svg>