<svg xmlns="http://www.w3.org/2000/svg" viewBox="0 0 88 88" width="88" height="88" role="img" aria-label="jiko king sprite">
  <title>jiko king red</title>
  <g>
      <circle cx="34" cy="4" r="4" fill="#e0523a"/>
      <circle cx="44" cy="4" r="4" fill="#e0523a"/>
      <circle cx="54" cy="4" r="4" fill="#e0523a"/>
      <circle cx="24" cy="14" r="4" fill="#e0523a"/>
      <circle cx="34" cy="14" r="4" fill="#e0523a"/>
      <circle cx="44" cy="14" r="4" fill="#e0523a"/>
      <circle cx="54" cy="14" r="4" fill="#e0523a"/>
      <circle cx="64" cy="14" r="4" fill="#e0523a"/>
      <circle cx="34" cy="24" r="4" fill="#e0523a"/>
      <circle cx="54" cy="24" r="4" fill="#e0523a"/>
      <circle cx="14" cy="34" r="4" fill="#e0523a"/>
      <circle cx="24" cy="34" r="4" fill="#e0523a"/>
      <circle cx="34" cy="34" r="4" fill="#e0523a"/>
      <circle cx="44" cy="34" r="4" fill="#e0523a"/>
      <circle cx="54" cy="34" r="4" fill="#e0523a"/>
      <circle cx="64" cy="34" r="4" fill="#e0523a"/>
      <circle cx="74" cy="34" r="4" fill="#e0523a"/>
      <circle cx="4" cy="44" r="4" fill="#e0523a"/>
      <circle cx="24" cy="44" r="4" fill="#e0523a"/>
      <circle cx="34" cy="44" r="4" fill="#e0523a"/>
      <circle cx="44" cy="44" r="4" fill="#e0523a"/>
      <circle cx="54" cy="44" r="4" fill="#e0523a"/>
      <circle cx="64" cy="44" r="4" fill="#e0523a"/>
      <circle cx="84" cy="44" r="4" fill="#e0523a"/>
      <circle cx="24" cy="54" r="4" fill="#e0523a"/>
      <circle cx="34" cy="54" r="4" fill="#e0523a"/>
      <circle cx="44" cy="54" r="4" fill="#e0523a"/>
      <circle cx="54" cy="54" r="4" fill="#e0523a"/>
      <circle cx="64" cy="54" r="4" fill="#e0523a"/>
      <circle cx="34" cy="64" r="4" fill="#e0523a"/>
      <circle cx="44" cy="64" r="4" fill="#e0523a"/>
      <circle cx="54" cy="64" r="4" fill="#e0523a"/>
      <circle cx="24" cy="74" r="4" fill="#e0523a"/>
      <circle cx="44" cy="74" r="4" fill="#e0523a"/>
      <circle cx="64" cy="74" r="4" fill="#e0523a"/>
      <circle cx="14" cy="84" r="4" fill="#e0523a"/>
      <circle cx="74" cy="84" r="4" fill="#e0523a"/>
  </g>
</svg>
